<?xml version="1.0" encoding="UTF-8" standalone="no"?>
<!-- Created with Inkscape (http://www.inkscape.org/) -->

<svg
   xmlns:dc="http://purl.org/dc/elements/1.1/"
   xmlns:cc="http://creativecommons.org/ns#"
   xmlns:rdf="http://www.w3.org/1999/02/22-rdf-syntax-ns#"
   xmlns:svg="http://www.w3.org/2000/svg"
   xmlns="http://www.w3.org/2000/svg"
   xmlns:sodipodi="http://sodipodi.sourceforge.net/DTD/sodipodi-0.dtd"
   xmlns:inkscape="http://www.inkscape.org/namespaces/inkscape"
   width="100"
   height="75"
   viewBox="0 0 52.916665 39.687501"
   version="1.1"
   id="svg8"
   inkscape:version="0.92.4 (unknown)"
   sodipodi:docname="bear_sad.svg">
  <!-- viewBox="0 0 52.916665 39.687501" -->
  <defs
     id="defs2" />
  <sodipodi:namedview
     id="base"
     pagecolor="#ffffff"
     bordercolor="#666666"
     borderopacity="1.0"
     inkscape:pageopacity="0.0"
     inkscape:pageshadow="2"
     inkscape:zoom="3.959798"
     inkscape:cx="75.802561"
     inkscape:cy="46.889395"
     inkscape:document-units="px"
     inkscape:current-layer="layer1"
     showgrid="false"
     inkscape:snap-global="true"
     inkscape:window-width="1311"
     inkscape:window-height="741"
     inkscape:window-x="55"
     inkscape:window-y="27"
     inkscape:window-maximized="1"
     units="px" />
  <metadata
     id="metadata5">
    <rdf:RDF>
      <cc:Work
         rdf:about="">
        <dc:format>image/svg+xml</dc:format>
        <dc:type
           rdf:resource="http://purl.org/dc/dcmitype/StillImage" />
        <dc:title></dc:title>
      </cc:Work>
    </rdf:RDF>
  </metadata>
  <g
     inkscape:label="Layer 1"
     inkscape:groupmode="layer"
     id="layer1"
     transform="translate(0,-257.31248)">
    <path
       style="opacity:1;fill:#00c8c8;fill-opacity:1;stroke:#000000;stroke-width:1.01944685;stroke-miterlimit:4;stroke-dasharray:none;stroke-opacity:1"
       d="m 13.836418,262.99464 a 5.1256516,5.172424 0 0 1 -5.1256521,5.17243 5.1256516,5.172424 0 0 1 -5.125652,-5.17243 5.1256516,5.172424 0 0 1 5.125652,-5.17242 5.1256516,5.172424 0 0 1 5.1256521,5.17242 z"
       id="circle829"
       inkscape:connector-curvature="0" />
    <path
       style="opacity:1;fill:#00c8c8;fill-opacity:1;stroke:#000000;stroke-width:1.01944685;stroke-miterlimit:4;stroke-dasharray:none;stroke-opacity:1"
       d="m 11.273592,262.99464 a 2.5628258,2.586212 0 0 1 -2.5628261,2.58621 2.5628258,2.586212 0 0 1 -2.5628256,-2.58621 2.5628258,2.586212 0 0 1 2.5628256,-2.58622 2.5628258,2.586212 0 0 1 2.5628261,2.58622 z"
       id="circle831"
       inkscape:connector-curvature="0" />
    <path
       style="opacity:1;fill:#00c8c8;fill-opacity:1;stroke:#000000;stroke-width:1.01944685;stroke-miterlimit:4;stroke-dasharray:none;stroke-opacity:1"
       d="m 49.203401,262.99464 a 5.1256516,5.172424 0 0 1 -5.125648,5.17243 5.1256516,5.172424 0 0 1 -5.125652,-5.17243 5.1256516,5.172424 0 0 1 5.125652,-5.17242 5.1256516,5.172424 0 0 1 5.125648,5.17242 z"
       id="circle833"
       inkscape:connector-curvature="0" />
    <path
       style="opacity:1;fill:#00c8c8;fill-opacity:1;stroke:#000000;stroke-width:1.01944685;stroke-miterlimit:4;stroke-dasharray:none;stroke-opacity:1"
       d="m 46.640581,262.99464 a 2.5628258,2.586212 0 0 1 -2.562828,2.58621 2.5628258,2.586212 0 0 1 -2.562826,-2.58621 2.5628258,2.586212 0 0 1 2.562826,-2.58622 2.5628258,2.586212 0 0 1 2.562828,2.58622 z"
       id="circle835"
       inkscape:connector-curvature="0" />
    <path
       style="opacity:1;fill:#00c8c8;fill-opacity:1;stroke:#000000;stroke-width:1.01944685;stroke-miterlimit:4;stroke-dasharray:none;stroke-opacity:1"
       d="m 20.993316,259.96124 h 10.801887 c 9.838752,0 17.759478,7.993 17.759478,17.92154 0,9.92853 -7.920726,17.92153 -17.759478,17.92153 H 20.993316 c -9.83875,0 -17.7594787,-7.993 -17.7594787,-17.92153 0,-9.92854 7.9207287,-17.92154 17.7594787,-17.92154 z"
       id="rect817"
       inkscape:connector-curvature="0" />
    <path
       style="opacity:1;fill:#00c8c8;fill-opacity:1;stroke:#000000;stroke-width:1.01944685;stroke-miterlimit:4;stroke-dasharray:none;stroke-opacity:1"
       d="m 23.531766,276.90093 h 5.724984 c 5.082403,0 9.174011,4.12895 9.174011,9.25773 0,5.12877 -4.091608,9.25772 -9.174011,9.25772 h -5.724984 c -5.082403,0 -9.174013,-4.12895 -9.174013,-9.25772 0,-5.12878 4.09161,-9.25773 9.174013,-9.25773 z"
       id="rect819"
       inkscape:connector-curvature="0" />
    <path
       style="opacity:1;fill:#000000;fill-opacity:1;stroke:#000000;stroke-width:1.01944685;stroke-miterlimit:4;stroke-dasharray:none;stroke-opacity:1"
       d="m 25.426125,277.15435 h 1.936251 c 1.53289,0 2.766949,1.24533 2.766949,2.7922 0,1.54688 -1.234059,2.79219 -2.766949,2.79219 h -1.936251 c -1.532889,0 -2.766947,-1.24531 -2.766947,-2.79219 0,-1.54687 1.234058,-2.7922 2.766947,-2.7922 z"
       id="rect821"
       inkscape:connector-curvature="0" />
    <path
       style="opacity:1;fill:#000000;fill-opacity:1;stroke:#000000;stroke-width:1.01944685;stroke-miterlimit:4;stroke-dasharray:none;stroke-opacity:1"
       d="m 21.83216,275.66708 a 1.1532716,1.1637954 0 0 1 -1.153272,1.1638 1.1532716,1.1637954 0 0 1 -1.153272,-1.1638 1.1532716,1.1637954 0 0 1 1.153272,-1.1638 1.1532716,1.1637954 0 0 1 1.153272,1.1638 z"
       id="path825"
       inkscape:connector-curvature="0" />
    <path
       style="opacity:1;fill:#000000;fill-opacity:1;stroke:#000000;stroke-width:1.01944685;stroke-miterlimit:4;stroke-dasharray:none;stroke-opacity:1"
       d="m 33.621155,275.66708 a 1.1532716,1.1637954 0 0 1 -1.153271,1.1638 1.1532716,1.1637954 0 0 1 -1.153271,-1.1638 1.1532716,1.1637954 0 0 1 1.153271,-1.1638 1.1532716,1.1637954 0 0 1 1.153271,1.1638 z"
       id="circle827"
       inkscape:connector-curvature="0" />
    <path
       style="opacity:1;fill:#00c8c8;fill-opacity:1;stroke:#000000;stroke-width:1.01944685;stroke-linecap:round;stroke-linejoin:round;stroke-miterlimit:4;stroke-dasharray:none;stroke-opacity:1"
       d="m 2.5290316,296.49027 c -1.1237886,2.8e-4 -2.01930817,-2.10292 -2.01930817,-3.23696 -2.88e-6,-3.64223 2.92590877,-6.59484 6.53520557,-6.59484 3.609297,0 6.535209,2.95261 6.535206,6.59484 v 0 c 0,1.13312 -0.600631,3.23432 -1.723509,3.2346 z"
       id="path914"
       inkscape:connector-curvature="0"
       sodipodi:nodetypes="sssccss" />
    <path
       sodipodi:nodetypes="sssccss"
       inkscape:connector-curvature="0"
       id="path916"
       d="m 41.355841,296.49027 c -1.123788,2.8e-4 -2.019308,-2.10292 -2.019308,-3.23696 -3e-6,-3.64223 2.925909,-6.59484 6.535208,-6.59484 3.609298,0 6.535202,2.95261 6.535202,6.59484 v 0 c 0,1.13312 -0.60063,3.23432 -1.723512,3.2346 z"
       style="opacity:1;fill:#00c8c8;fill-opacity:1;stroke:#000000;stroke-width:1.01944685;stroke-linecap:round;stroke-linejoin:round;stroke-miterlimit:4;stroke-dasharray:none;stroke-opacity:1" />
    <rect
       style="fill:#00c8c8;fill-opacity:1;stroke:none;stroke-width:2.64583325;stroke-linecap:round;stroke-linejoin:round;stroke-miterlimit:4;stroke-dasharray:none;stroke-opacity:1"
       id="rect847"
       width="4.5357141"
       height="1.7008928"
       x="-122.11362"
       y="246.63379"
       ry="0"
       transform="rotate(-30)" />
    <rect
       transform="rotate(30)"
       ry="0"
       y="220.06039"
       x="163.60437"
       height="1.7008928"
       width="4.5357141"
       id="rect849"
       style="fill:#00c8c8;fill-opacity:1;stroke:none;stroke-width:2.64583325;stroke-linecap:round;stroke-linejoin:round;stroke-miterlimit:4;stroke-dasharray:none;stroke-opacity:1" />
    <path
       style="color:#000000;font-style:normal;font-variant:normal;font-weight:normal;font-stretch:normal;font-size:medium;line-height:normal;font-family:sans-serif;font-variant-ligatures:normal;font-variant-position:normal;font-variant-caps:normal;font-variant-numeric:normal;font-variant-alternates:normal;font-feature-settings:normal;text-indent:0;text-align:start;text-decoration:none;text-decoration-line:none;text-decoration-style:solid;text-decoration-color:#000000;letter-spacing:normal;word-spacing:normal;text-transform:none;writing-mode:lr-tb;direction:ltr;text-orientation:mixed;dominant-baseline:auto;baseline-shift:baseline;text-anchor:start;white-space:normal;shape-padding:0;clip-rule:nonzero;display:inline;overflow:visible;visibility:visible;opacity:1;isolation:auto;mix-blend-mode:normal;color-interpolation:sRGB;color-interpolation-filters:linearRGB;solid-color:#000000;solid-opacity:1;vector-effect:none;fill:#000000;fill-opacity:1;fill-rule:nonzero;stroke:none;stroke-width:1.05833328;stroke-linecap:round;stroke-linejoin:round;stroke-miterlimit:4;stroke-dasharray:none;stroke-dashoffset:0;stroke-opacity:1;color-rendering:auto;image-rendering:auto;shape-rendering:auto;text-rendering:auto;enable-background:accumulate"
       d="m 25.700756,285.64604 c -0.03417,0.1643 -0.116087,0.32176 -0.247013,0.45269 l -3.274219,3.27422 c -0.354311,0.35431 -0.902458,0.35431 -1.256771,0 l -0.580843,-0.58085 -0.75861,0.73794 0.591179,0.59118 c 0.756192,0.7562 1.997128,0.7562 2.75332,0 l 3.274219,-3.27422 c 0.02193,-0.0219 0.02895,-0.0517 0.04961,-0.0744 0.02053,0.0226 0.02679,0.0526 0.04858,0.0744 l 3.274219,3.27422 c 0.756192,0.7562 1.997128,0.7562 2.75332,0 l 0.7028,-0.7028 -0.754476,-0.74311 -0.696599,0.69764 c -0.354312,0.35431 -0.902458,0.35431 -1.256771,0 l -3.274218,-3.27422 c -0.109752,-0.10975 -0.181484,-0.23871 -0.223243,-0.37414 z"
       id="rect851"
       inkscape:connector-curvature="0" />
    <path
       style="fill:none;stroke:#000000;stroke-width:1.05833333;stroke-linecap:butt;stroke-linejoin:miter;stroke-opacity:1;stroke-miterlimit:4;stroke-dasharray:none"
       d="m 26.251628,286.7726 v -4.07154"
       id="path864"
       inkscape:connector-curvature="0" />
  </g>
</svg>
